<?xml version="1.0" encoding="utf-8"?>
<!-- Generator: Adobe Illustrator 16.0.0, SVG Export Plug-In . SVG Version: 6.00 Build 0)  -->
<!DOCTYPE svg PUBLIC "-//W3C//DTD SVG 1.1//EN" "http://www.w3.org/Graphics/SVG/1.1/DTD/svg11.dtd">
<svg version="1.1" id="Layer_1" xmlns="http://www.w3.org/2000/svg" xmlns:xlink="http://www.w3.org/1999/xlink" x="0px" y="0px"
	 width="970px" height="668.938px" viewBox="0 0 970 668.938" enable-background="new 0 0 970 668.938" xml:space="preserve">
<rect y="451.327" fill="#427089" width="692.078" height="217.058"/>
<g>
	<path fill="#FFFFFF" d="M319.987,541.684c-5.413,0-9.433-4.178-9.433-9.459v-0.053c0-5.229,3.941-9.512,9.591-9.512
		c3.468,0,5.544,1.156,7.252,2.838l-2.575,2.969c-1.419-1.287-2.864-2.076-4.703-2.076c-3.101,0-5.334,2.575-5.334,5.729v0.053
		c0,3.153,2.181,5.78,5.334,5.78c2.102,0,3.39-0.841,4.834-2.154l2.575,2.603C325.636,540.422,323.534,541.684,319.987,541.684z"/>
	<path fill="#FFFFFF" d="M342.268,541.368v-7.384h-7.462v7.384h-4.046v-18.394h4.046v7.278h7.462v-7.278h4.046v18.394H342.268z"/>
	<path fill="#FFFFFF" d="M350.729,541.368v-18.394h13.874v3.601h-9.853v3.729h8.671v3.602h-8.671v3.861h9.984v3.601H350.729
		L350.729,541.368z"/>
	<path fill="#FFFFFF" d="M372.379,526.654v3.915h8.776v3.678h-8.776v7.121h-4.046v-18.394h14.005v3.68H372.379L372.379,526.654z"/>
</g>
<g>
	<path fill="#FFFFFF" d="M246.81,572.216h-7.173v-18.393h7.173c5.781,0,9.774,3.967,9.774,9.144v0.053
		C256.584,568.195,252.591,572.216,246.81,572.216z M252.354,563.02c0-3.259-2.234-5.544-5.544-5.544h-3.127v11.089h3.127
		c3.311,0,5.544-2.233,5.544-5.491V563.02z"/>
	<path fill="#FFFFFF" d="M260.184,572.216v-18.393h13.874v3.6h-9.853v3.73h8.671v3.601h-8.671v3.862h9.984v3.6H260.184
		L260.184,572.216z"/>
	<path fill="#FFFFFF" d="M287.222,572.348h-3.574l-7.436-18.523h4.467l4.808,12.953l4.809-12.953h4.362L287.222,572.348z"/>
	<path fill="#FFFFFF" d="M297.495,572.216v-18.393h13.874v3.6h-9.853v3.73h8.671v3.601h-8.671v3.862h9.984v3.6H297.495
		L297.495,572.216z"/>
	<path fill="#FFFFFF" d="M315.1,572.216v-18.393h4.046v14.714h9.17v3.679H315.1z"/>
	<path fill="#FFFFFF" d="M340.298,572.531c-5.676,0-9.749-4.23-9.749-9.459v-0.053c0-5.229,4.125-9.513,9.801-9.513
		c5.676,0,9.749,4.23,9.749,9.459v0.053C350.099,568.248,345.973,572.531,340.298,572.531z M345.868,563.02
		c0-3.152-2.312-5.78-5.57-5.78c-3.258,0-5.518,2.575-5.518,5.729v0.054c0,3.152,2.312,5.779,5.57,5.779
		c3.258,0,5.518-2.575,5.518-5.728V563.02z"/>
	<path fill="#FFFFFF" d="M360.818,566.698h-3.074v5.518h-4.046v-18.393h7.515c4.388,0,7.042,2.601,7.042,6.357v0.054
		C368.254,564.491,364.943,566.698,360.818,566.698z M364.155,560.261c0-1.812-1.261-2.785-3.285-2.785h-3.127v5.623h3.206
		c2.023,0,3.206-1.209,3.206-2.786V560.261L364.155,560.261z"/>
	<path fill="#FFFFFF" d="M385.623,572.216v-12.008l-5.176,7.856h-0.105l-5.124-7.777v11.929h-3.968v-18.393h4.362l4.835,7.776
		l4.834-7.776h4.362v18.393H385.623L385.623,572.216z"/>
	<path fill="#FFFFFF" d="M394.056,572.216v-18.393h13.874v3.6h-9.853v3.73h8.671v3.601h-8.671v3.862h9.983v3.6H394.056
		L394.056,572.216z"/>
	<path fill="#FFFFFF" d="M424.562,572.216l-8.907-11.691v11.691h-3.994v-18.393h3.73l8.618,11.323v-11.323h3.994v18.393H424.562z"/>
	<path fill="#FFFFFF" d="M440.748,557.554v14.662h-4.046v-14.662h-5.597v-3.729h15.239v3.729H440.748z"/>
</g>
<g>
	<path fill="#FFFFFF" d="M333.887,603.062l-5.702-7.83l-2.128,2.207v5.622h-4.046V584.67h4.046v8.04l7.462-8.04h4.887l-7.488,7.804
		l7.83,10.589H333.887L333.887,603.062z"/>
	<path fill="#FFFFFF" d="M341.375,603.062V584.67h4.046v18.393H341.375L341.375,603.062z"/>
	<path fill="#FFFFFF" d="M358.349,588.4v14.662h-4.046V588.4h-5.597v-3.73h15.24v3.73H358.349z"/>
</g>
<g>
	<path fill="#FFFFFF" d="M37.93,554.146c-3.766,0-6.562-2.907-6.562-6.581v-0.037c0-3.639,2.742-6.617,6.672-6.617
		c2.413,0,3.857,0.805,5.045,1.975l-1.792,2.065c-0.987-0.896-1.993-1.444-3.272-1.444c-2.157,0-3.71,1.792-3.71,3.985v0.036
		c0,2.193,1.517,4.021,3.71,4.021c1.462,0,2.358-0.585,3.364-1.499l1.792,1.811C41.86,553.268,40.397,554.146,37.93,554.146z"/>
	<path fill="#FFFFFF" d="M51.291,554.146c-3.948,0-6.782-2.943-6.782-6.581v-0.037c0-3.639,2.87-6.617,6.818-6.617
		c3.949,0,6.782,2.942,6.782,6.581v0.036C58.11,551.165,55.24,554.146,51.291,554.146z M55.167,547.527
		c0-2.193-1.608-4.021-3.875-4.021s-3.838,1.792-3.838,3.985v0.036c0,2.193,1.608,4.021,3.875,4.021s3.839-1.792,3.839-3.984
		L55.167,547.527L55.167,547.527z"/>
	<path fill="#FFFFFF" d="M66.48,554.146c-3.948,0-6.782-2.943-6.782-6.581v-0.037c0-3.639,2.87-6.617,6.818-6.617
		c3.949,0,6.782,2.942,6.782,6.581v0.036C73.299,551.165,70.429,554.146,66.48,554.146z M70.356,547.527
		c0-2.193-1.608-4.021-3.875-4.021s-3.838,1.792-3.838,3.985v0.036c0,2.193,1.608,4.021,3.875,4.021s3.839-1.792,3.839-3.984
		L70.356,547.527L70.356,547.527z"/>
	<path fill="#FFFFFF" d="M83.717,553.926l-3.966-5.447l-1.481,1.535v3.912h-2.815V541.13h2.815v5.594l5.191-5.594h3.4l-5.21,5.429
		l5.447,7.367H83.717z"/>
	<path fill="#FFFFFF" d="M94.538,553.926h-6.087V541.13h5.941c2.614,0,4.223,1.298,4.223,3.31v0.035
		c0,1.444-0.768,2.249-1.682,2.762c1.48,0.565,2.395,1.426,2.395,3.145v0.036C99.327,552.756,97.426,553.926,94.538,553.926z
		 M95.817,544.914c0-0.841-0.658-1.316-1.846-1.316h-2.779v2.705h2.596c1.243,0,2.029-0.401,2.029-1.353V544.914z M96.53,550.032
		c0-0.859-0.64-1.391-2.084-1.391h-3.254v2.815h3.345c1.243,0,1.993-0.438,1.993-1.39V550.032z"/>
	<path fill="#FFFFFF" d="M107.516,554.146c-3.949,0-6.782-2.943-6.782-6.581v-0.037c0-3.639,2.87-6.617,6.818-6.617
		c3.949,0,6.782,2.942,6.782,6.581v0.036C114.334,551.165,111.464,554.146,107.516,554.146z M111.391,547.527
		c0-2.193-1.608-4.021-3.875-4.021s-3.839,1.792-3.839,3.985v0.036c0,2.193,1.608,4.021,3.875,4.021
		c2.267,0,3.839-1.792,3.839-3.984V547.527z"/>
	<path fill="#FFFFFF" d="M122.704,554.146c-3.948,0-6.782-2.943-6.782-6.581v-0.037c0-3.639,2.87-6.617,6.818-6.617
		c3.949,0,6.782,2.942,6.782,6.581v0.036C129.523,551.165,126.653,554.146,122.704,554.146z M126.58,547.527
		c0-2.193-1.608-4.021-3.875-4.021s-3.838,1.792-3.838,3.985v0.036c0,2.193,1.608,4.021,3.875,4.021
		c2.267,0,3.839-1.792,3.839-3.984L126.58,547.527L126.58,547.527z"/>
	<path fill="#FFFFFF" d="M139.941,553.926l-3.967-5.447l-1.481,1.535v3.912h-2.815V541.13h2.815v5.594l5.191-5.594h3.4l-5.21,5.429
		l5.447,7.367H139.941z"/>
	<path fill="#FFFFFF" d="M159.334,553.926l-1.17-2.87h-5.411l-1.17,2.87h-2.87l5.484-12.888h2.596l5.484,12.888H159.334z
		 M155.459,544.42l-1.7,4.149h3.4L155.459,544.42z"/>
	<path fill="#FFFFFF" d="M172.879,553.926l-6.197-8.135v8.135h-2.778V541.13h2.596l5.996,7.879v-7.879h2.779v12.796H172.879z"/>
	<path fill="#FFFFFF" d="M182.968,553.926h-4.99V541.13h4.99c4.021,0,6.8,2.76,6.8,6.361v0.036
		C189.768,551.129,186.989,553.926,182.968,553.926z M186.825,547.527c0-2.268-1.554-3.856-3.857-3.856h-2.175v7.714h2.175
		c2.303,0,3.857-1.554,3.857-3.82V547.527z"/>
</g>
<g>
	<path fill="#FFFFFF" d="M19.688,570.65h-2.139v3.839h-2.815v-12.796h5.228c3.053,0,4.899,1.81,4.899,4.424v0.036
		C24.861,569.115,22.558,570.65,19.688,570.65z M22.009,566.172c0-1.262-0.877-1.938-2.285-1.938h-2.175v3.912h2.23
		c1.407,0,2.23-0.842,2.23-1.938V566.172z"/>
	<path fill="#FFFFFF" d="M32.812,574.709c-3.948,0-6.782-2.943-6.782-6.581v-0.037c0-3.638,2.87-6.617,6.818-6.617
		c3.949,0,6.782,2.943,6.782,6.581v0.036C39.63,571.729,36.76,574.709,32.812,574.709z M36.687,568.091
		c0-2.192-1.608-4.021-3.875-4.021s-3.838,1.792-3.838,3.984v0.036c0,2.194,1.608,4.022,3.875,4.022s3.839-1.792,3.839-3.985
		L36.687,568.091L36.687,568.091z"/>
	<path fill="#FFFFFF" d="M41.786,574.489v-12.796h2.815v10.235h6.38v2.561H41.786z"/>
	<path fill="#FFFFFF" d="M52.881,574.489v-12.796h2.815v12.796H52.881z"/>
	<path fill="#FFFFFF" d="M64.542,574.709c-3.766,0-6.562-2.907-6.562-6.581v-0.037c0-3.638,2.742-6.617,6.672-6.617
		c2.413,0,3.857,0.806,5.045,1.976l-1.792,2.064c-0.987-0.896-1.993-1.443-3.272-1.443c-2.157,0-3.71,1.792-3.71,3.984v0.036
		c0,2.194,1.517,4.022,3.71,4.022c1.462,0,2.358-0.585,3.364-1.499l1.792,1.81C68.473,573.831,67.01,574.709,64.542,574.709z"/>
	<path fill="#FFFFFF" d="M78.105,569.389v5.102H75.29v-5.045l-4.917-7.751h3.291l3.053,5.137l3.107-5.137h3.199L78.105,569.389z"/>
	<path fill="#FFFFFF" d="M99.089,574.489l-1.17-2.87h-5.411l-1.17,2.87h-2.87l5.484-12.889h2.596l5.484,12.889H99.089z
		 M95.213,564.983l-1.7,4.148h3.4L95.213,564.983z"/>
	<path fill="#FFFFFF" d="M108.995,574.69c-3.437,0-5.539-1.921-5.539-5.687v-7.312h2.815v7.237c0,2.084,1.042,3.163,2.76,3.163
		c1.718,0,2.76-1.042,2.76-3.07v-7.33h2.815v7.221C114.607,572.789,112.432,574.69,108.995,574.69z"/>
	<path fill="#FFFFFF" d="M122.923,564.289v10.2h-2.815v-10.2h-3.894v-2.596h10.603v2.596H122.923z"/>
	<path fill="#FFFFFF" d="M136.632,574.489v-5.138h-5.191v5.138h-2.815v-12.796h2.815v5.062h5.191v-5.062h2.815v12.796H136.632z"/>
	<path fill="#FFFFFF" d="M148.386,574.709c-3.949,0-6.782-2.943-6.782-6.581v-0.037c0-3.638,2.87-6.617,6.818-6.617
		c3.949,0,6.782,2.943,6.782,6.581v0.036C155.204,571.729,152.334,574.709,148.386,574.709z M152.261,568.091
		c0-2.192-1.608-4.021-3.875-4.021c-2.267,0-3.839,1.792-3.839,3.984v0.036c0,2.194,1.608,4.022,3.875,4.022
		s3.839-1.792,3.839-3.985V568.091z"/>
	<path fill="#FFFFFF" d="M165.128,574.489l-2.742-4.095h-2.212v4.095h-2.815v-12.796h5.85c3.016,0,4.826,1.59,4.826,4.223v0.036
		c0,2.065-1.115,3.364-2.742,3.967l3.125,4.57H165.128z M165.183,566.062c0-1.207-0.841-1.828-2.212-1.828h-2.797v3.674h2.852
		c1.371,0,2.157-0.73,2.157-1.811V566.062z"/>
	<path fill="#FFFFFF" d="M170.355,574.489v-12.796h2.815v12.796H170.355z"/>
	<path fill="#FFFFFF" d="M184.979,574.489l-6.197-8.136v8.136h-2.778v-12.796h2.596l5.996,7.879v-7.879h2.779v12.796H184.979z"/>
	<path fill="#FFFFFF" d="M196.238,574.709c-3.985,0-6.727-2.797-6.727-6.581v-0.037c0-3.638,2.833-6.617,6.709-6.617
		c2.303,0,3.692,0.622,5.027,1.755l-1.773,2.14c-0.987-0.822-1.865-1.298-3.345-1.298c-2.047,0-3.674,1.81-3.674,3.984v0.036
		c0,2.34,1.608,4.06,3.875,4.06c1.024,0,1.938-0.256,2.651-0.769v-1.828h-2.833v-2.432h5.557v5.558
		C200.388,573.795,198.578,574.709,196.238,574.709z"/>
</g>
<g>
	<path fill="#FFFFFF" d="M524.796,543.726v10.2h-2.813v-10.2h-3.896v-2.596h10.604v2.596H524.796z"/>
	<path fill="#FFFFFF" d="M530.479,553.926V541.13h9.652v2.504h-6.854v2.597h6.032v2.505h-6.032v2.688h6.945v2.504L530.479,553.926
		L530.479,553.926z"/>
	<path fill="#FFFFFF" d="M546.912,554.108c-1.938,0-3.895-0.677-5.429-2.048l1.663-1.992c1.151,0.95,2.357,1.554,3.82,1.554
		c1.151,0,1.846-0.457,1.846-1.206v-0.036c0-0.713-0.438-1.079-2.576-1.627c-2.578-0.658-4.241-1.371-4.241-3.912v-0.037
		c0-2.32,1.864-3.855,4.479-3.855c1.864,0,3.455,0.585,4.753,1.627l-1.463,2.12c-1.133-0.786-2.248-1.263-3.326-1.263
		s-1.646,0.494-1.646,1.115v0.037c0,0.841,0.549,1.115,2.76,1.682c2.597,0.677,4.06,1.608,4.06,3.839v0.036
		C551.61,552.683,549.673,554.108,546.912,554.108z"/>
	<path fill="#FFFFFF" d="M559.507,543.726v10.2h-2.813v-10.2h-3.896v-2.596H563.4v2.596H559.507z"/>
	<path fill="#FFFFFF" d="M564.569,549.594v-2.669h5.63v2.669H564.569z"/>
	<path fill="#FFFFFF" d="M577.292,553.926h-4.991V541.13h4.991c4.021,0,6.8,2.76,6.8,6.361v0.036
		C584.092,551.129,581.312,553.926,577.292,553.926z M581.148,547.527c0-2.268-1.555-3.856-3.856-3.856h-2.176v7.714h2.176
		c2.303,0,3.856-1.554,3.856-3.82V547.527z"/>
	<path fill="#FFFFFF" d="M594.017,553.926l-2.741-4.095h-2.212v4.095h-2.815V541.13h5.85c3.018,0,4.826,1.59,4.826,4.224v0.035
		c0,2.066-1.115,3.364-2.742,3.968l3.126,4.569H594.017z M594.071,545.499c0-1.207-0.841-1.828-2.212-1.828h-2.797v3.674h2.852
		c1.371,0,2.157-0.73,2.157-1.81V545.499z"/>
	<path fill="#FFFFFF" d="M599.243,553.926V541.13h2.814v12.796H599.243z"/>
	<path fill="#FFFFFF" d="M611.453,554.018h-2.485l-5.174-12.888h3.107l3.346,9.012l3.346-9.012h3.034L611.453,554.018z"/>
	<path fill="#FFFFFF" d="M618.234,553.926V541.13h9.651v2.504h-6.854v2.597h6.033v2.505h-6.033v2.688h6.945v2.504L618.234,553.926
		L618.234,553.926z"/>
	<path fill="#FFFFFF" d="M639.091,553.926l-6.196-8.135v8.135h-2.778V541.13h2.596l5.996,7.879v-7.879h2.778v12.796H639.091z"/>
</g>
<g>
	<path fill="#FFFFFF" d="M493.979,574.489v-12.796h2.815v12.796H493.979z"/>
	<path fill="#FFFFFF" d="M508.604,574.489l-6.196-8.136v8.136h-2.779v-12.796h2.596l5.996,7.879v-7.879h2.778v12.796H508.604z"/>
	<path fill="#FFFFFF" d="M516.517,564.252v2.725h6.105v2.56h-6.105v4.954h-2.814v-12.796h9.743v2.559L516.517,564.252
		L516.517,564.252z"/>
	<path fill="#FFFFFF" d="M533.113,574.489l-2.742-4.095h-2.212v4.095h-2.815v-12.796h5.851c3.017,0,4.825,1.59,4.825,4.223v0.036
		c0,2.065-1.114,3.364-2.741,3.967l3.126,4.57H533.113z M533.168,566.062c0-1.207-0.841-1.828-2.212-1.828h-2.797v3.674h2.852
		c1.371,0,2.157-0.73,2.157-1.811V566.062z"/>
	<path fill="#FFFFFF" d="M547.736,574.489l-1.17-2.87h-5.411l-1.17,2.87h-2.87l5.483-12.889h2.597l5.483,12.889H547.736z
		 M543.86,564.983l-1.699,4.148h3.398L543.86,564.983z"/>
	<path fill="#FFFFFF" d="M556.838,574.672c-1.938,0-3.894-0.676-5.429-2.047l1.663-1.993c1.151,0.951,2.357,1.554,3.82,1.554
		c1.151,0,1.847-0.456,1.847-1.205v-0.036c0-0.713-0.438-1.079-2.577-1.627c-2.578-0.658-4.241-1.371-4.241-3.912v-0.037
		c0-2.321,1.864-3.856,4.479-3.856c1.863,0,3.455,0.585,4.753,1.627l-1.464,2.12c-1.133-0.786-2.247-1.262-3.325-1.262
		c-1.079,0-1.646,0.494-1.646,1.115v0.037c0,0.841,0.549,1.114,2.76,1.682c2.598,0.676,4.06,1.608,4.06,3.839v0.036
		C561.536,573.246,559.599,574.672,556.838,574.672z"/>
	<path fill="#FFFFFF" d="M569.433,564.289v10.2h-2.813v-10.2h-3.896v-2.596h10.604v2.596H569.433z"/>
	<path fill="#FFFFFF" d="M582.886,574.489l-2.742-4.095h-2.212v4.095h-2.814v-12.796h5.85c3.018,0,4.826,1.59,4.826,4.223v0.036
		c0,2.065-1.115,3.364-2.742,3.967l3.126,4.57H582.886z M582.94,566.062c0-1.207-0.842-1.828-2.212-1.828h-2.798v3.674h2.853
		c1.371,0,2.157-0.73,2.157-1.811V566.062z"/>
	<path fill="#FFFFFF" d="M593.322,574.69c-3.438,0-5.539-1.921-5.539-5.687v-7.312h2.814v7.237c0,2.084,1.042,3.163,2.762,3.163
		c1.718,0,2.76-1.042,2.76-3.07v-7.33h2.814v7.221C598.935,572.789,596.759,574.69,593.322,574.69z"/>
	<path fill="#FFFFFF" d="M607.433,574.709c-3.766,0-6.562-2.907-6.562-6.581v-0.037c0-3.638,2.742-6.617,6.672-6.617
		c2.413,0,3.857,0.806,5.046,1.976l-1.792,2.064c-0.986-0.896-1.992-1.443-3.271-1.443c-2.157,0-3.711,1.792-3.711,3.984v0.036
		c0,2.194,1.517,4.022,3.711,4.022c1.462,0,2.356-0.585,3.362-1.499l1.791,1.81C611.363,573.831,609.9,574.709,607.433,574.709z"/>
	<path fill="#FFFFFF" d="M620.374,564.289v10.2h-2.814v-10.2h-3.895v-2.596h10.603v2.596H620.374z"/>
	<path fill="#FFFFFF" d="M631.396,574.69c-3.438,0-5.539-1.921-5.539-5.687v-7.312h2.814v7.237c0,2.084,1.042,3.163,2.761,3.163
		s2.761-1.042,2.761-3.07v-7.33h2.814v7.221C637.008,572.789,634.832,574.69,631.396,574.69z"/>
	<path fill="#FFFFFF" d="M647.28,574.489l-2.742-4.095h-2.212v4.095h-2.815v-12.796h5.851c3.017,0,4.826,1.59,4.826,4.223v0.036
		c0,2.065-1.115,3.364-2.742,3.967l3.126,4.57H647.28z M647.335,566.062c0-1.207-0.841-1.828-2.212-1.828h-2.797v3.674h2.852
		c1.371,0,2.157-0.73,2.157-1.811V566.062z"/>
	<path fill="#FFFFFF" d="M652.379,574.489v-12.796h9.652v2.504h-6.855v2.596h6.033v2.505h-6.033v2.688h6.946v2.504L652.379,574.489
		L652.379,574.489z"/>
</g>
<rect y="271.951" fill="#F38500" width="692.078" height="137.082"/>
<g>
	<path fill="#FFFFFF" d="M203.93,358.708c-9.415,0-16.407-7.267-16.407-16.452v-0.092c0-9.094,6.855-16.543,16.681-16.543
		c6.033,0,9.643,2.011,12.613,4.936l-4.479,5.164c-2.468-2.238-4.981-3.609-8.18-3.609c-5.393,0-9.277,4.479-9.277,9.962v0.092
		c0,5.484,3.793,10.054,9.277,10.054c3.656,0,5.895-1.462,8.409-3.747l4.479,4.524C213.755,356.514,210.1,358.708,203.93,358.708z"
		/>
	<path fill="#FFFFFF" d="M242.681,358.159v-12.842h-12.979v12.842h-7.038v-31.99h7.038v12.659h12.979v-12.659h7.038v31.99H242.681z"
		/>
	<path fill="#FFFFFF" d="M257.393,358.159v-31.99h24.129v6.261h-17.137v6.49h15.081v6.261h-15.081v6.719h17.366v6.261
		L257.393,358.159L257.393,358.159z"/>
	<path fill="#FFFFFF" d="M295.047,332.567v6.809h15.264v6.398h-15.264v12.385h-7.038v-31.99h24.358v6.398H295.047L295.047,332.567z"
		/>
	<path fill="#FFFFFF" d="M343.073,358.616c-4.844,0-9.734-1.691-13.573-5.118l4.159-4.981c2.879,2.376,5.896,3.886,9.551,3.886
		c2.879,0,4.616-1.144,4.616-3.018v-0.092c0-1.782-1.097-2.696-6.443-4.067c-6.444-1.645-10.603-3.427-10.603-9.778v-0.091
		c0-5.805,4.662-9.644,11.196-9.644c4.662,0,8.638,1.462,11.882,4.067l-3.656,5.301c-2.833-1.965-5.621-3.153-8.317-3.153
		c-2.696,0-4.113,1.234-4.113,2.788v0.092c0,2.103,1.371,2.787,6.901,4.204c6.489,1.691,10.145,4.021,10.145,9.598v0.092
		C354.818,355.052,349.974,358.616,343.073,358.616z"/>
	<path fill="#FFFFFF" d="M360.939,358.159v-31.99h24.129v6.261h-17.137v6.49h15.081v6.261h-15.081v6.719h17.366v6.261
		L360.939,358.159L360.939,358.159z"/>
	<path fill="#FFFFFF" d="M410.979,358.159l-6.854-10.237h-5.53v10.237h-7.038v-31.99h14.624c7.541,0,12.065,3.976,12.065,10.557
		v0.093c0,5.164-2.788,8.407-6.855,9.917l7.814,11.425L410.979,358.159L410.979,358.159z M411.116,337.092
		c0-3.017-2.103-4.569-5.53-4.569h-6.992v9.186h7.129c3.428,0,5.394-1.828,5.394-4.524V337.092z"/>
	<path fill="#FFFFFF" d="M441,358.388h-6.215l-12.934-32.219h7.77l8.363,22.53l8.362-22.53h7.586L441,358.388z"/>
	<path fill="#FFFFFF" d="M458.866,358.159v-31.99h24.129v6.261h-17.137v6.49h15.081v6.261h-15.081v6.719h17.365v6.261
		L458.866,358.159L458.866,358.159z"/>
	<path fill="#FFFFFF" d="M508.905,358.159l-6.855-10.237h-5.528v10.237h-7.038v-31.99h14.624c7.539,0,12.063,3.976,12.063,10.557
		v0.093c0,5.164-2.787,8.407-6.854,9.917l7.813,11.425L508.905,358.159L508.905,358.159z M509.042,337.092
		c0-3.017-2.103-4.569-5.529-4.569h-6.991v9.186h7.129c3.428,0,5.393-1.828,5.393-4.524L509.042,337.092L509.042,337.092z"/>
</g>
<rect y="0.571" fill="#427089" width="217.058" height="217.057"/>
<g>
	<path fill="#FFFFFF" d="M48.556,108.279v-8.354l-3.601,5.466h-0.073l-3.564-5.411v8.299h-2.76V95.483h3.034l3.364,5.411
		l3.363-5.411h3.035v12.796H48.556z"/>
	<path fill="#FFFFFF" d="M63.6,108.279l-1.17-2.87h-5.411l-1.17,2.87h-2.87l5.484-12.887h2.596l5.484,12.887H63.6z M59.724,98.773
		l-1.7,4.15h3.4L59.724,98.773z"/>
	<path fill="#FFFFFF" d="M77.144,108.279l-6.197-8.135v8.135h-2.778V95.483h2.596l5.996,7.878v-7.878h2.779v12.796H77.144z"/>
	<path fill="#FFFFFF" d="M91.785,108.279l-1.17-2.87h-5.411l-1.17,2.87h-2.87l5.484-12.887h2.596l5.484,12.887H91.785z
		 M87.909,98.773l-1.7,4.15h3.4L87.909,98.773z"/>
	<path fill="#FFFFFF" d="M102.495,108.499c-3.985,0-6.727-2.797-6.727-6.581v-0.037c0-3.638,2.833-6.618,6.709-6.618
		c2.303,0,3.692,0.622,5.027,1.755l-1.773,2.139c-0.987-0.823-1.865-1.298-3.345-1.298c-2.047,0-3.674,1.81-3.674,3.985v0.037
		c0,2.34,1.608,4.058,3.875,4.058c1.024,0,1.938-0.256,2.651-0.768v-1.828h-2.833v-2.431h5.557v5.557
		C106.645,107.584,104.835,108.499,102.495,108.499z"/>
	<path fill="#FFFFFF" d="M110.318,108.279V95.483h9.652v2.504h-6.855v2.596h6.032v2.504h-6.032v2.687h6.946v2.504L110.318,108.279
		L110.318,108.279z"/>
	<path fill="#FFFFFF" d="M132.198,108.279v-8.354l-3.601,5.466h-0.073l-3.564-5.411v8.299h-2.76V95.483h3.034l3.364,5.411
		l3.363-5.411h3.035v12.796H132.198z"/>
	<path fill="#FFFFFF" d="M137.717,108.279V95.483h9.652v2.504h-6.855v2.596h6.032v2.504h-6.032v2.687h6.946v2.504L137.717,108.279
		L137.717,108.279z"/>
	<path fill="#FFFFFF" d="M158.574,108.279l-6.197-8.135v8.135h-2.778V95.483h2.596l5.996,7.878v-7.878h2.779v12.796H158.574z"/>
	<path fill="#FFFFFF" d="M169.485,98.079v10.2h-2.815v-10.2h-3.894v-2.596h10.603v2.596H169.485z"/>
</g>
<g>
	<path fill="#FFFFFF" d="M66.962,129.061c-3.766,0-6.562-2.906-6.562-6.581v-0.037c0-3.638,2.742-6.618,6.672-6.618
		c2.413,0,3.857,0.805,5.045,1.975l-1.792,2.065c-0.987-0.896-1.993-1.444-3.272-1.444c-2.157,0-3.71,1.792-3.71,3.985v0.037
		c0,2.193,1.517,4.021,3.71,4.021c1.462,0,2.358-0.585,3.364-1.499l1.792,1.81C70.892,128.184,69.43,129.061,66.962,129.061z"/>
	<path fill="#FFFFFF" d="M80.323,129.061c-3.948,0-6.782-2.943-6.782-6.581v-0.037c0-3.638,2.87-6.618,6.818-6.618
		c3.949,0,6.782,2.943,6.782,6.581v0.037C87.142,126.082,84.272,129.061,80.323,129.061z M84.199,122.444
		c0-2.194-1.608-4.021-3.875-4.021c-2.267,0-3.838,1.792-3.838,3.985v0.037c0,2.193,1.608,4.021,3.875,4.021
		s3.839-1.792,3.839-3.985L84.199,122.444L84.199,122.444z"/>
	<path fill="#FFFFFF" d="M98.273,128.842l-6.197-8.135v8.135h-2.778v-12.796h2.596l5.996,7.878v-7.878h2.779v12.796H98.273z"/>
	<path fill="#FFFFFF" d="M107.942,129.024c-1.938,0-3.894-0.676-5.429-2.047l1.664-1.992c1.151,0.95,2.358,1.554,3.82,1.554
		c1.152,0,1.846-0.457,1.846-1.207v-0.037c0-0.713-0.438-1.079-2.577-1.627c-2.578-0.658-4.241-1.371-4.241-3.912v-0.037
		c0-2.322,1.865-3.857,4.479-3.857c1.865,0,3.455,0.585,4.753,1.627l-1.462,2.121c-1.133-0.786-2.249-1.261-3.327-1.261
		c-1.078,0-1.645,0.494-1.645,1.115v0.036c0,0.841,0.548,1.115,2.76,1.682c2.596,0.676,4.058,1.608,4.058,3.839v0.036
		C112.64,127.599,110.702,129.024,107.942,129.024z"/>
	<path fill="#FFFFFF" d="M120.956,129.061c-3.948,0-6.782-2.943-6.782-6.581v-0.037c0-3.638,2.87-6.618,6.818-6.618
		c3.949,0,6.782,2.943,6.782,6.581v0.037C127.775,126.082,124.905,129.061,120.956,129.061z M124.832,122.444
		c0-2.194-1.608-4.021-3.875-4.021s-3.838,1.792-3.838,3.985v0.037c0,2.193,1.608,4.021,3.875,4.021s3.839-1.792,3.839-3.985
		L124.832,122.444L124.832,122.444z"/>
	<path fill="#FFFFFF" d="M129.931,128.842v-12.796h2.815v10.237h6.38v2.559H129.931z"/>
	<path fill="#FFFFFF" d="M140.897,128.842v-12.796h9.652v2.504h-6.855v2.596h6.032v2.504h-6.032v2.687h6.946v2.504L140.897,128.842
		L140.897,128.842z"/>
</g>
<rect x="475.021" y="0.571" fill="#427089" width="217.057" height="217.057"/>
<g>
	<path fill="#FFFFFF" d="M540.624,108.279l-1.17-2.87h-5.411l-1.17,2.87h-2.87l5.484-12.887h2.596l5.484,12.887H540.624z
		 M536.748,98.773l-1.699,4.15h3.399L536.748,98.773z"/>
	<path fill="#FFFFFF" d="M554.149,108.279l-6.196-8.135v8.135h-2.779V95.483h2.596l5.996,7.878v-7.878h2.778v12.796H554.149z"/>
	<path fill="#FFFFFF" d="M568.791,108.279l-1.17-2.87h-5.411l-1.17,2.87h-2.87l5.484-12.887h2.596l5.484,12.887H568.791z
		 M564.915,98.773l-1.699,4.15h3.399L564.915,98.773z"/>
	<path fill="#FFFFFF" d="M573.341,108.279V95.483h2.815v10.237h6.38v2.559H573.341z"/>
	<path fill="#FFFFFF" d="M590.725,103.179v5.1h-2.814v-5.045l-4.917-7.75h3.29l3.053,5.137l3.107-5.137h3.198L590.725,103.179z"/>
	<path fill="#FFFFFF" d="M602.843,98.079v10.2h-2.813v-10.2h-3.896v-2.596h10.604v2.596H602.843z"/>
	<path fill="#FFFFFF" d="M608.654,108.279V95.483h2.814v12.796H608.654z"/>
	<path fill="#FFFFFF" d="M620.299,108.499c-3.766,0-6.562-2.906-6.562-6.581v-0.037c0-3.638,2.741-6.618,6.672-6.618
		c2.413,0,3.856,0.805,5.046,1.975l-1.792,2.065c-0.986-0.896-1.992-1.444-3.271-1.444c-2.156,0-3.711,1.792-3.711,3.985v0.037
		c0,2.193,1.518,4.021,3.711,4.021c1.462,0,2.357-0.585,3.363-1.499l1.791,1.81C624.229,107.621,622.767,108.499,620.299,108.499z"
		/>
	<path fill="#FFFFFF" d="M631.996,108.462c-1.938,0-3.895-0.676-5.429-2.047l1.663-1.992c1.151,0.95,2.357,1.554,3.82,1.554
		c1.151,0,1.846-0.457,1.846-1.207v-0.037c0-0.713-0.438-1.079-2.576-1.627c-2.578-0.658-4.241-1.371-4.241-3.912v-0.037
		c0-2.322,1.864-3.857,4.479-3.857c1.864,0,3.455,0.585,4.753,1.627l-1.463,2.121c-1.133-0.786-2.248-1.261-3.326-1.261
		s-1.646,0.494-1.646,1.115v0.036c0,0.841,0.549,1.115,2.76,1.682c2.597,0.676,4.06,1.608,4.06,3.839v0.036
		C636.694,107.036,634.757,108.462,631.996,108.462z"/>
</g>
<g>
	<path fill="#FFFFFF" d="M538.118,125.003h-2.14v3.839h-2.814v-12.796h5.229c3.054,0,4.899,1.81,4.899,4.424v0.036
		C543.292,123.467,540.988,125.003,538.118,125.003z M540.439,120.524c0-1.261-0.877-1.938-2.284-1.938h-2.177v3.912h2.23
		c1.407,0,2.229-0.841,2.229-1.938v-0.036H540.439z"/>
	<path fill="#FFFFFF" d="M545.009,128.842v-12.796h2.815v10.237h6.38v2.559H545.009z"/>
	<path fill="#FFFFFF" d="M565.5,128.842l-1.17-2.87h-5.411l-1.17,2.87h-2.87l5.484-12.887h2.596l5.484,12.887H565.5z
		 M561.624,119.336l-1.699,4.15h3.399L561.624,119.336z"/>
	<path fill="#FFFFFF" d="M575.863,118.642v10.2h-2.814v-10.2h-3.895v-2.596h10.603v2.596H575.863z"/>
	<path fill="#FFFFFF" d="M584.362,118.605v2.724h6.104v2.559h-6.104v4.954h-2.815v-12.796h9.743v2.559H584.362L584.362,118.605z"/>
	<path fill="#FFFFFF" d="M599.406,129.061c-3.948,0-6.782-2.943-6.782-6.581v-0.037c0-3.638,2.87-6.618,6.818-6.618
		c3.947,0,6.781,2.943,6.781,6.581v0.037C606.225,126.082,603.354,129.061,599.406,129.061z M603.281,122.444
		c0-2.194-1.608-4.021-3.875-4.021c-2.268,0-3.839,1.792-3.839,3.985v0.037c0,2.193,1.607,4.021,3.875,4.021
		c2.267,0,3.839-1.792,3.839-3.985V122.444z"/>
	<path fill="#FFFFFF" d="M616.148,128.842l-2.742-4.095h-2.212v4.095h-2.815v-12.796h5.85c3.018,0,4.826,1.59,4.826,4.223v0.037
		c0,2.065-1.114,3.363-2.742,3.967l3.127,4.57L616.148,128.842L616.148,128.842z M616.203,120.415c0-1.207-0.841-1.828-2.212-1.828
		h-2.797v3.674h2.852c1.371,0,2.157-0.731,2.157-1.81V120.415z"/>
	<path fill="#FFFFFF" d="M631.247,128.842v-8.354l-3.603,5.466h-0.072l-3.564-5.411v8.299h-2.761v-12.796h3.035l3.362,5.411
		l3.363-5.411h3.035v12.796H631.247z"/>
</g>
<rect x="236.088" y="0.571" fill="#427089" width="217.059" height="217.057"/>
<g>
	<path fill="#F38500" d="M826.009,316.51c-7.531,0-13.125-5.812-13.125-13.161v-0.073c0-7.275,5.484-13.235,13.345-13.235
		c4.826,0,7.715,1.609,10.092,3.949l-3.583,4.131c-1.976-1.791-3.985-2.888-6.545-2.888c-4.313,0-7.422,3.583-7.422,7.97v0.073
		c0,4.387,3.034,8.043,7.422,8.043c2.925,0,4.717-1.17,6.728-2.998l3.583,3.62C833.869,314.755,830.944,316.51,826.009,316.51z"/>
	<path fill="#F38500" d="M857.009,316.071v-10.273h-10.383v10.273h-5.63v-25.592h5.63v10.127h10.383v-10.127h5.631v25.592H857.009z"
		/>
	<path fill="#F38500" d="M868.779,316.071v-25.592h19.304v5.008h-13.71v5.192h12.064v5.009h-12.064v5.374h13.893v5.01H868.779
		L868.779,316.071z"/>
	<path fill="#F38500" d="M898.902,295.598v5.447h12.211v5.119h-12.211v9.908h-5.631V290.48h19.486v5.118H898.902L898.902,295.598z"
		/>
</g>
<g>
	<path fill="#F38500" d="M808.17,353.066c-7.531,0-13.125-5.812-13.125-13.161v-0.073c0-7.275,5.484-13.235,13.345-13.235
		c4.826,0,7.714,1.609,10.091,3.949l-3.582,4.131c-1.976-1.791-3.985-2.888-6.546-2.888c-4.312,0-7.421,3.583-7.421,7.97v0.073
		c0,4.387,3.034,8.043,7.421,8.043c2.926,0,4.718-1.17,6.729-2.998l3.583,3.62C816.03,351.312,813.105,353.066,808.17,353.066z"/>
	<path fill="#F38500" d="M823.157,352.628v-25.592h5.63v20.474h12.76v5.118H823.157z"/>
	<path fill="#F38500" d="M846.042,352.628v-25.592h5.63v25.592H846.042z"/>
	<path fill="#F38500" d="M858.069,352.628v-25.592h19.304v5.008h-13.71v5.192h12.063v5.009h-12.063v5.374h13.893v5.009H858.069
		L858.069,352.628z"/>
	<path fill="#F38500" d="M900.514,352.628l-12.395-16.27v16.27h-5.558v-25.592h5.191l11.991,15.757v-15.757h5.558v25.592H900.514z"
		/>
	<path fill="#F38500" d="M923.031,332.228v20.4h-5.63v-20.4h-7.787v-5.19h21.205v5.19H923.031z"/>
</g>
<g>
	<path fill="#F38500" d="M815.373,389.185l-12.396-16.27v16.27h-5.557v-25.592h5.191l11.99,15.757v-15.757h5.559v25.592H815.373z"/>
	<path fill="#F38500" d="M838.731,389.623c-7.896,0-13.563-5.886-13.563-13.161v-0.073c0-7.274,5.74-13.233,13.637-13.233
		c7.897,0,13.564,5.886,13.564,13.161v0.072C852.369,383.664,846.629,389.623,838.731,389.623z M846.482,376.389
		c0-4.388-3.218-8.043-7.751-8.043s-7.678,3.582-7.678,7.971v0.072c0,4.388,3.218,8.043,7.75,8.043c4.534,0,7.679-3.583,7.679-7.97
		V376.389z"/>
	<path fill="#F38500" d="M867.355,389.185h-9.98v-25.592h9.98c8.043,0,13.601,5.521,13.601,12.724v0.072
		C880.956,383.591,875.398,389.185,867.355,389.185z M875.069,376.389c0-4.532-3.107-7.714-7.714-7.714h-4.352v15.429h4.352
		c4.605,0,7.714-3.107,7.714-7.642V376.389z"/>
	<path fill="#F38500" d="M885.962,389.185v-25.592h19.304v5.009h-13.71v5.191h12.064v5.009h-12.064v5.374h13.894v5.009H885.962z"/>
	<path fill="#F38500" d="M919.559,389.55c-3.876,0-7.787-1.353-10.857-4.095l3.327-3.984c2.303,1.9,4.716,3.107,7.641,3.107
		c2.304,0,3.692-0.914,3.692-2.413v-0.073c0-1.426-0.877-2.157-5.154-3.254c-5.155-1.316-8.482-2.742-8.482-7.823v-0.072
		c0-4.645,3.729-7.716,8.957-7.716c3.729,0,6.91,1.171,9.507,3.255l-2.926,4.24c-2.267-1.571-4.497-2.521-6.653-2.521
		c-2.157,0-3.29,0.986-3.29,2.229v0.072c0,1.683,1.097,2.23,5.521,3.364c5.191,1.353,8.116,3.217,8.116,7.678v0.072
		C928.954,386.698,925.079,389.55,919.559,389.55z"/>
</g>
<rect x="787.314" y="34.693" fill="none" stroke="#427089" stroke-miterlimit="10" width="147.172" height="147.172"/>
<rect x="787.314" y="486.27" fill="none" stroke="#427089" stroke-miterlimit="10" width="147.172" height="147.173"/>
<g>
	<path fill="#427089" d="M821.008,92.85v10.2h-2.813v-10.2h-3.896v-2.596h10.604v2.596H821.008z"/>
	<path fill="#427089" d="M834.698,103.05v-5.137h-5.191v5.137h-2.814V90.254h2.814v5.063h5.191v-5.063h2.814v12.796H834.698z"/>
	<path fill="#427089" d="M840.218,103.05V90.254h9.652v2.504h-6.855v2.596h6.033v2.504h-6.033v2.687h6.946v2.504L840.218,103.05
		L840.218,103.05z"/>
	<path fill="#427089" d="M862.226,103.05h-4.99V90.254h4.99c4.021,0,6.801,2.76,6.801,6.361v0.037
		C869.025,100.253,866.247,103.05,862.226,103.05z M866.082,96.652c0-2.267-1.554-3.857-3.856-3.857h-2.176v7.714h2.176
		c2.304,0,3.856-1.554,3.856-3.82V96.652z"/>
	<path fill="#427089" d="M880.688,103.05l-1.17-2.87h-5.41l-1.17,2.87h-2.87l5.483-12.887h2.597l5.483,12.887H880.688z
		 M876.812,93.544l-1.699,4.15h3.398L876.812,93.544z"/>
	<path fill="#427089" d="M891.032,92.85v10.2h-2.814v-10.2h-3.895v-2.596h10.603v2.596H891.032z"/>
	<path fill="#427089" d="M906.24,103.05l-1.17-2.87h-5.411l-1.17,2.87h-2.87l5.484-12.887h2.596l5.483,12.887H906.24z
		 M902.364,93.544l-1.699,4.15h3.399L902.364,93.544z"/>
</g>
<g>
	<path fill="#427089" d="M831.334,123.833c-3.766,0-6.562-2.906-6.562-6.581v-0.037c0-3.638,2.742-6.618,6.673-6.618
		c2.413,0,3.856,0.805,5.046,1.975l-1.792,2.065c-0.986-0.896-1.992-1.444-3.271-1.444c-2.157,0-3.711,1.792-3.711,3.985v0.037
		c0,2.193,1.518,4.021,3.711,4.021c1.462,0,2.357-0.585,3.363-1.499l1.791,1.81C835.265,122.955,833.802,123.833,831.334,123.833z"
		/>
	<path fill="#427089" d="M838.479,123.613v-12.796h9.652v2.504h-6.854v2.596h6.032v2.504h-6.032v2.687h6.945v2.504L838.479,123.613
		L838.479,123.613z"/>
	<path fill="#427089" d="M859.337,123.613l-6.196-8.135v8.135h-2.778v-12.796h2.596l5.996,7.878v-7.878h2.778v12.796H859.337z"/>
	<path fill="#427089" d="M870.23,113.413v10.2h-2.814v-10.2h-3.896v-2.596h10.604v2.596H870.23z"/>
	<path fill="#427089" d="M875.933,123.613v-12.796h9.652v2.504h-6.854v2.596h6.032v2.504h-6.032v2.687h6.945v2.504L875.933,123.613
		L875.933,123.613z"/>
	<path fill="#427089" d="M895.583,123.613l-2.742-4.095h-2.212v4.095h-2.814v-12.796h5.85c3.017,0,4.826,1.59,4.826,4.223v0.037
		c0,2.065-1.115,3.363-2.742,3.967l3.126,4.57h-3.291V123.613z M895.638,115.186c0-1.207-0.841-1.828-2.212-1.828h-2.797v3.674
		h2.853c1.37,0,2.156-0.731,2.156-1.81V115.186z"/>
</g>
<g>
	<g>
		<defs>
			<rect id="SVGID_1_" width="970" height="668.938"/>
		</defs>
		<clipPath id="SVGID_2_">
			<use xlink:href="#SVGID_1_"  overflow="visible"/>
		</clipPath>
		
			<rect x="752.371" y="0.571" clip-path="url(#SVGID_2_)" fill="none" stroke="#427089" stroke-miterlimit="10" width="217.058" height="667.795"/>
	</g>
</g>
<g>
	<path fill="#427089" d="M850.344,544.408v10.2h-2.813v-10.2h-3.896v-2.596h10.604v2.596H850.344z"/>
	<path fill="#427089" d="M864.034,554.608v-5.138h-5.191v5.138h-2.814v-12.797h2.814v5.063h5.191v-5.063h2.814v12.797H864.034z"/>
	<path fill="#427089" d="M869.554,554.608v-12.797h9.652v2.505h-6.855v2.596h6.033v2.505h-6.033v2.688h6.946v2.504L869.554,554.608
		L869.554,554.608z"/>
</g>
<g>
	<path fill="#427089" d="M835.685,575.392c-3.766,0-6.562-2.906-6.562-6.581v-0.036c0-3.639,2.742-6.617,6.672-6.617
		c2.413,0,3.857,0.805,5.046,1.975l-1.792,2.065c-0.986-0.896-1.992-1.444-3.271-1.444c-2.157,0-3.711,1.792-3.711,3.985v0.036
		c0,2.193,1.517,4.021,3.711,4.021c1.462,0,2.356-0.585,3.362-1.499l1.791,1.811C839.615,574.514,838.152,575.392,835.685,575.392z"
		/>
	<path fill="#427089" d="M842.83,575.172v-12.796h2.814v10.236h6.381v2.56H842.83z"/>
	<path fill="#427089" d="M860.014,575.392c-3.947,0-6.781-2.942-6.781-6.581v-0.036c0-3.639,2.869-6.617,6.817-6.617
		s6.782,2.942,6.782,6.581v0.036C866.832,572.411,863.962,575.392,860.014,575.392z M863.889,568.773
		c0-2.193-1.607-4.021-3.875-4.021c-2.267,0-3.839,1.792-3.839,3.985v0.036c0,2.193,1.608,4.021,3.875,4.021
		c2.268,0,3.839-1.792,3.839-3.985V568.773z"/>
	<path fill="#427089" d="M874.324,575.373c-3.438,0-5.539-1.92-5.539-5.686v-7.312h2.814v7.239c0,2.083,1.042,3.162,2.762,3.162
		c1.718,0,2.76-1.042,2.76-3.071v-7.33h2.814v7.221C879.938,573.472,877.761,575.373,874.324,575.373z"/>
	<path fill="#427089" d="M887.431,575.172h-4.99v-12.796h4.99c4.021,0,6.801,2.76,6.801,6.361v0.036
		C894.23,572.375,891.452,575.172,887.431,575.172z M891.287,568.773c0-2.268-1.554-3.856-3.856-3.856h-2.176v7.714h2.176
		c2.304,0,3.856-1.554,3.856-3.82V568.773z"/>
</g>
<polygon fill="#F18A20" points="85.608,261.429 93.912,247.049 102.214,261.429 "/>
<rect x="92.708" y="261.331" fill="#F18A20" width="2.929" height="10.62"/>
<polygon fill="#546777" points="137.628,228.3 129.325,242.68 121.023,228.3 "/>
<rect x="127.861" y="218.489" fill="#546777" width="2.929" height="10.62"/>
<polygon fill="#F18A20" points="336.938,261.429 345.241,247.049 353.543,261.429 "/>
<rect x="344.038" y="261.331" fill="#F18A20" width="2.929" height="10.62"/>
<polygon fill="#427089" points="336.938,440.787 345.241,426.407 353.543,440.787 "/>
<rect x="344.038" y="440.689" fill="#427089" width="2.929" height="10.618"/>
<polygon fill="#546777" points="741.237,118.147 726.856,109.844 741.237,101.542 "/>
<rect x="741.202" y="108.117" fill="#546777" width="10.62" height="2.929"/>
<polygon fill="#F18A20" points="560.851,261.429 569.153,247.049 577.455,261.429 "/>
<rect x="567.95" y="261.331" fill="#F18A20" width="2.929" height="10.62"/>
<polygon fill="#F18A20" points="728.671,331.166 743.052,339.469 728.671,347.771 "/>
<polygon fill="#F18A20" points="718.39,347.771 704.009,339.468 718.39,331.167 "/>
<rect x="718.39" y="338.267" fill="#F18A20" width="10.619" height="2.931"/>
<g display="none">
	<path display="inline" d="M262.864,108.599v-5.338h-5.395v5.338h-2.926V95.301h2.926v5.262h5.395v-5.262h2.926v13.298H262.864z"/>
	<path display="inline" d="M268.071,108.599V95.301h2.926v13.298H268.071z"/>
	<path display="inline" d="M279.679,108.827c-4.142,0-6.991-2.907-6.991-6.839v-0.038c0-3.781,2.945-6.877,6.972-6.877
		c2.394,0,3.837,0.646,5.224,1.824l-1.843,2.223c-1.026-0.855-1.938-1.349-3.477-1.349c-2.127,0-3.818,1.881-3.818,4.142v0.038
		c0,2.432,1.672,4.217,4.027,4.217c1.064,0,2.014-0.266,2.754-0.798v-1.9h-2.944v-2.526h5.775v5.775
		C283.991,107.877,282.111,108.827,279.679,108.827z"/>
	<path display="inline" d="M295.449,108.599v-5.338h-5.395v5.338h-2.926V95.301h2.926v5.262h5.395v-5.262h2.926v13.298H295.449z"/>
	<path display="inline" d="M315.075,108.599l-1.216-2.982h-5.623l-1.216,2.982h-2.982l5.699-13.393h2.697l5.699,13.393H315.075z
		 M311.047,98.721l-1.767,4.312h3.533L311.047,98.721z"/>
	<path display="inline" d="M324.611,108.694h-2.583l-5.376-13.393h3.229l3.477,9.365l3.476-9.365h3.154L324.611,108.694z"/>
	<path display="inline" d="M339.543,108.599l-1.216-2.982h-5.623l-1.216,2.982h-2.982l5.699-13.393h2.697l5.699,13.393H339.543z
		 M335.516,98.721l-1.767,4.312h3.533L335.516,98.721z"/>
	<path display="inline" d="M344.294,108.599V95.301h2.926v13.298H344.294z"/>
	<path display="inline" d="M350.051,108.599V95.301h2.926v10.638h6.63v2.66H350.051z"/>
	<path display="inline" d="M371.216,108.599L370,105.617h-5.623l-1.216,2.982h-2.982l5.699-13.393h2.697l5.699,13.393H371.216z
		 M367.188,98.721l-1.767,4.312h3.533L367.188,98.721z"/>
	<path display="inline" d="M382.16,108.599h-6.326V95.301h6.174c2.716,0,4.388,1.349,4.388,3.438v0.038
		c0,1.501-0.798,2.337-1.748,2.869c1.539,0.589,2.488,1.482,2.488,3.268v0.038C387.137,107.383,385.162,108.599,382.16,108.599z
		 M383.49,99.233c0-0.874-0.684-1.368-1.918-1.368h-2.888v2.812h2.698c1.292,0,2.108-0.418,2.108-1.406V99.233z M384.231,104.553
		c0-0.893-0.665-1.444-2.166-1.444h-3.381v2.926h3.477c1.292,0,2.071-0.456,2.071-1.444V104.553z"/>
	<path display="inline" d="M389.19,108.599V95.301h2.926v13.298H389.19z"/>
	<path display="inline" d="M394.948,108.599V95.301h2.926v10.638h6.63v2.66H394.948z"/>
	<path display="inline" d="M406.347,108.599V95.301h2.926v13.298H406.347z"/>
	<path display="inline" d="M418.126,97.999v10.601h-2.925V97.999h-4.046v-2.697h11.018v2.697H418.126z"/>
	<path display="inline" d="M430.59,103.299v5.3h-2.925v-5.243l-5.11-8.055h3.419l3.172,5.338l3.229-5.338h3.325L430.59,103.299z"/>
	<path display="inline" d="M272.6,129.599l-1.216-2.982h-5.623l-1.216,2.982h-2.982l5.699-13.393h2.697l5.699,13.393H272.6z
		 M268.572,119.721l-1.767,4.312h3.533L268.572,119.721z"/>
	<path display="inline" d="M285.995,129.599l-6.44-8.454v8.454h-2.888v-13.298h2.698l6.231,8.188v-8.188h2.888v13.298H285.995z"/>
	<path display="inline" d="M295.818,129.599h-5.187v-13.298h5.187c4.179,0,7.067,2.868,7.067,6.611v0.038
		C302.885,126.692,299.998,129.599,295.818,129.599z M299.827,122.95c0-2.356-1.615-4.008-4.008-4.008h-2.261v8.017h2.261
		c2.394,0,4.008-1.615,4.008-3.97V122.95z"/>
	<path display="inline" d="M312.025,118.961v2.831h6.345v2.659h-6.345v5.148H309.1v-13.298h10.125v2.66H312.025z"/>
	<path display="inline" d="M320.519,129.599v-13.298h10.031v2.603h-7.124v2.697h6.269v2.603h-6.269v2.792h7.219v2.603H320.519z"/>
	<path display="inline" d="M337.39,129.599h-5.187v-13.298h5.187c4.179,0,7.067,2.868,7.067,6.611v0.038
		C344.457,126.692,341.569,129.599,337.39,129.599z M341.398,122.95c0-2.356-1.615-4.008-4.008-4.008h-2.261v8.017h2.261
		c2.394,0,4.008-1.615,4.008-3.97V122.95z"/>
	<path display="inline" d="M346.017,129.599v-13.298h10.031v2.603h-7.124v2.697h6.269v2.603h-6.269v2.792h7.219v2.603H346.017z"/>
	<path display="inline" d="M365.775,129.599l-2.85-4.255h-2.298v4.255h-2.926v-13.298h6.079c3.135,0,5.015,1.652,5.015,4.388v0.038
		c0,2.146-1.159,3.496-2.85,4.122l3.249,4.75H365.775z M365.832,120.841c0-1.254-0.874-1.899-2.299-1.899h-2.906v3.818h2.963
		c1.425,0,2.242-0.76,2.242-1.881V120.841z"/>
	<path display="inline" d="M380.291,129.599l-1.216-2.982h-5.623l-1.216,2.982h-2.982l5.699-13.393h2.697l5.699,13.393H380.291z
		 M376.263,119.721l-1.767,4.312h3.533L376.263,119.721z"/>
	<path display="inline" d="M388.668,118.999v10.601h-2.925v-10.601h-4.046v-2.697h11.018v2.697H388.668z"/>
	<path display="inline" d="M394.046,129.599v-13.298h2.926v13.298H394.046z"/>
	<path display="inline" d="M405.711,129.827c-4.103,0-7.048-3.059-7.048-6.839v-0.038c0-3.781,2.982-6.877,7.086-6.877
		s7.048,3.059,7.048,6.839v0.038C412.797,126.73,409.815,129.827,405.711,129.827z M409.739,122.95c0-2.28-1.671-4.18-4.027-4.18
		c-2.355,0-3.989,1.862-3.989,4.142v0.038c0,2.28,1.672,4.179,4.027,4.179s3.989-1.862,3.989-4.141V122.95z"/>
	<path display="inline" d="M423.685,129.599l-6.44-8.454v8.454h-2.888v-13.298h2.698l6.231,8.188v-8.188h2.888v13.298H423.685z"/>
</g>
<g>
	<path fill="#FFFFFF" d="M264.531,108.279v-5.338h-5.395v5.338h-2.926V94.981h2.926v5.262h5.395v-5.262h2.926v13.298H264.531z"/>
	<path fill="#FFFFFF" d="M270.061,108.279V94.981h2.926v13.298H270.061z"/>
	<path fill="#FFFFFF" d="M281.992,108.507c-4.142,0-6.991-2.907-6.991-6.839v-0.038c0-3.781,2.944-6.877,6.972-6.877
		c2.394,0,3.837,0.646,5.224,1.824l-1.843,2.223c-1.026-0.855-1.938-1.349-3.477-1.349c-2.127,0-3.818,1.881-3.818,4.142v0.038
		c0,2.432,1.672,4.217,4.027,4.217c1.064,0,2.014-0.266,2.754-0.798v-1.9h-2.944v-2.526h5.775v5.775
		C286.304,107.557,284.424,108.507,281.992,108.507z"/>
	<path fill="#FFFFFF" d="M298.084,108.279v-5.338h-5.395v5.338h-2.926V94.981h2.926v5.262h5.395v-5.262h2.926v13.298H298.084z"/>
	<path fill="#FFFFFF" d="M318.357,108.279l-1.216-2.982h-5.623l-1.216,2.982h-2.982l5.699-13.393h2.697l5.699,13.393H318.357z
		 M314.33,98.4l-1.767,4.312h3.533L314.33,98.4z"/>
	<path fill="#FFFFFF" d="M327.665,108.374h-2.583l-5.376-13.393h3.229l3.477,9.365l3.476-9.365h3.154L327.665,108.374z"/>
	<path fill="#FFFFFF" d="M342.369,108.279l-1.216-2.982h-5.623l-1.216,2.982h-2.982l5.699-13.393h2.697l5.699,13.393H342.369z
		 M338.342,98.4l-1.767,4.312h3.533L338.342,98.4z"/>
	<path fill="#FFFFFF" d="M346.892,108.279V94.981h2.926v13.298H346.892z"/>
	<path fill="#FFFFFF" d="M352.421,108.279V94.981h2.926v10.638h6.63v2.66H352.421z"/>
	<path fill="#FFFFFF" d="M373.357,108.279l-1.216-2.982h-5.623l-1.216,2.982h-2.982l5.699-13.393h2.697l5.699,13.393H373.357z
		 M369.33,98.4l-1.767,4.312h3.533L369.33,98.4z"/>
	<path fill="#FFFFFF" d="M384.074,108.279h-6.326V94.981h6.174c2.716,0,4.388,1.349,4.388,3.438v0.038
		c0,1.501-0.798,2.337-1.748,2.869c1.539,0.589,2.488,1.482,2.488,3.268v0.038C389.051,107.063,387.076,108.279,384.074,108.279z
		 M385.404,98.913c0-0.874-0.684-1.368-1.918-1.368h-2.888v2.812h2.698c1.292,0,2.108-0.418,2.108-1.406V98.913z M386.145,104.232
		c0-0.893-0.665-1.444-2.166-1.444h-3.381v2.926h3.477c1.292,0,2.071-0.456,2.071-1.444V104.232z"/>
	<path fill="#FFFFFF" d="M390.876,108.279V94.981h2.926v13.298H390.876z"/>
	<path fill="#FFFFFF" d="M396.406,108.279V94.981h2.926v10.638h6.63v2.66H396.406z"/>
	<path fill="#FFFFFF" d="M407.577,108.279V94.981h2.926v13.298H407.577z"/>
	<path fill="#FFFFFF" d="M419.128,97.678v10.601h-2.925V97.678h-4.046v-2.697h11.018v2.697H419.128z"/>
	<path fill="#FFFFFF" d="M431.364,102.979v5.3h-2.925v-5.243l-5.11-8.055h3.419l3.172,5.338l3.229-5.338h3.325L431.364,102.979z"/>
</g>
<g>
	<path fill="#FFFFFF" d="M266.61,129.061l-1.216-2.982h-5.623l-1.216,2.982h-2.982l5.699-13.393h2.697l5.699,13.393H266.61z
		 M262.583,119.183l-1.767,4.312h3.533L262.583,119.183z"/>
	<path fill="#FFFFFF" d="M280.594,129.061l-6.44-8.454v8.454h-2.888v-13.298h2.698l6.231,8.188v-8.188h2.888v13.298H280.594z"/>
	<path fill="#FFFFFF" d="M291.007,129.061h-5.187v-13.298h5.187c4.179,0,7.067,2.868,7.067,6.611v0.038
		C298.074,126.154,295.186,129.061,291.007,129.061z M295.015,122.412c0-2.356-1.615-4.008-4.008-4.008h-2.261v8.017h2.261
		c2.394,0,4.008-1.615,4.008-3.97V122.412z"/>
	<path fill="#FFFFFF" d="M313.54,129.061l-2.85-4.255h-2.298v4.255h-2.926v-13.298h6.079c3.135,0,5.015,1.652,5.015,4.388v0.038
		c0,2.146-1.159,3.496-2.85,4.122l3.249,4.75H313.54z M313.597,120.303c0-1.254-0.874-1.899-2.299-1.899h-2.906v3.818h2.963
		c1.425,0,2.242-0.76,2.242-1.881V120.303z"/>
	<path fill="#FFFFFF" d="M318.747,129.061v-13.298h10.031v2.603h-7.124v2.697h6.269v2.603h-6.269v2.792h7.219v2.603H318.747z"/>
	<path fill="#FFFFFF" d="M336.169,125.072h-2.223v3.989h-2.926v-13.298h5.433c3.173,0,5.091,1.88,5.091,4.597v0.038
		C341.545,123.476,339.151,125.072,336.169,125.072z M338.582,120.417c0-1.311-0.912-2.014-2.375-2.014h-2.261v4.065h2.317
		c1.463,0,2.318-0.874,2.318-2.014V120.417z"/>
	<path fill="#FFFFFF" d="M343.257,129.061v-13.298h2.926v10.638h6.63v2.66H343.257z"/>
	<path fill="#FFFFFF" d="M354.694,129.061v-13.298h2.926v13.298H354.694z"/>
	<path fill="#FFFFFF" d="M366.72,129.289c-3.913,0-6.82-3.021-6.82-6.839v-0.038c0-3.781,2.85-6.877,6.934-6.877
		c2.507,0,4.008,0.836,5.243,2.052l-1.862,2.146c-1.026-0.931-2.071-1.501-3.4-1.501c-2.242,0-3.856,1.862-3.856,4.142v0.038
		c0,2.28,1.577,4.179,3.856,4.179c1.52,0,2.451-0.608,3.496-1.558l1.861,1.881C370.805,128.377,369.285,129.289,366.72,129.289z"/>
	<path fill="#FFFFFF" d="M383.953,129.061l-1.216-2.982h-5.623l-1.216,2.982h-2.982l5.699-13.393h2.697l5.699,13.393H383.953z
		 M379.925,119.183l-1.767,4.312h3.533L379.925,119.183z"/>
	<path fill="#FFFFFF" d="M392.919,118.46v10.601h-2.925V118.46h-4.046v-2.697h11.018v2.697H392.919z"/>
	<path fill="#FFFFFF" d="M398.886,129.061v-13.298h2.926v13.298H398.886z"/>
	<path fill="#FFFFFF" d="M411.14,129.289c-4.103,0-7.048-3.059-7.048-6.839v-0.038c0-3.781,2.982-6.877,7.086-6.877
		s7.048,3.059,7.048,6.839v0.038C418.226,126.192,415.244,129.289,411.14,129.289z M415.167,122.412c0-2.28-1.671-4.18-4.027-4.18
		c-2.355,0-3.989,1.862-3.989,4.142v0.038c0,2.28,1.672,4.179,4.027,4.179s3.989-1.862,3.989-4.141V122.412z"/>
	<path fill="#FFFFFF" d="M429.703,129.061l-6.44-8.454v8.454h-2.888v-13.298h2.698l6.231,8.188v-8.188h2.888v13.298H429.703z"/>
</g>
</svg>
