<?xml version="1.0" encoding="UTF-8" standalone="no"?>
<!DOCTYPE svg PUBLIC "-//W3C//DTD SVG 1.1//EN"
 "http://www.w3.org/Graphics/SVG/1.1/DTD/svg11.dtd">
<!-- Generated by graphviz version 2.38.0 (20140413.2041)
 -->
<!-- Title: %3 Pages: 1 -->
<svg width="422pt" height="260pt"
 viewBox="0.00 0.00 422.05 260.00" xmlns="http://www.w3.org/2000/svg" xmlns:xlink="http://www.w3.org/1999/xlink">
<g id="graph0" class="graph" transform="scale(1 1) rotate(0) translate(4 256)">
<title>%3</title>
<polygon fill="white" stroke="none" points="-4,4 -4,-256 418.05,-256 418.05,4 -4,4"/>
<!-- student1 -->
<g id="node1" class="node"><title>student1</title>
<ellipse fill="none" stroke="black" cx="315.025" cy="-162" rx="99.0502" ry="18"/>
<text text-anchor="middle" x="315.025" y="-157.8" font-family="Times,serif" font-size="14.00">Student ID: 123&#45;45&#45;6789</text>
</g>
<!-- course2 -->
<g id="node4" class="node"><title>course2</title>
<ellipse fill="none" stroke="black" cx="301.025" cy="-90" rx="85.5535" ry="18"/>
<text text-anchor="middle" x="301.025" y="-85.8" font-family="Times,serif" font-size="14.00">Class ID: DSCI 6004</text>
</g>
<!-- student1&#45;&#45;course2 -->
<g id="edge4" class="edge"><title>student1&#45;&#45;course2</title>
<path fill="none" stroke="black" d="M311.564,-143.697C309.394,-132.846 306.608,-118.917 304.446,-108.104"/>
</g>
<!-- student2 -->
<g id="node2" class="node"><title>student2</title>
<ellipse fill="none" stroke="black" cx="99.0251" cy="-162" rx="99.0502" ry="18"/>
<text text-anchor="middle" x="99.0251" y="-157.8" font-family="Times,serif" font-size="14.00">Student ID: 987&#45;65&#45;4321</text>
</g>
<!-- course1 -->
<g id="node3" class="node"><title>course1</title>
<ellipse fill="none" stroke="black" cx="99.0251" cy="-90" rx="85.5535" ry="18"/>
<text text-anchor="middle" x="99.0251" y="-85.8" font-family="Times,serif" font-size="14.00">Class ID: DSCI 6003</text>
</g>
<!-- student2&#45;&#45;course1 -->
<g id="edge5" class="edge"><title>student2&#45;&#45;course1</title>
<path fill="none" stroke="black" d="M99.0251,-143.697C99.0251,-132.846 99.0251,-118.917 99.0251,-108.104"/>
</g>
<!-- student2&#45;&#45;course2 -->
<g id="edge6" class="edge"><title>student2&#45;&#45;course2</title>
<path fill="none" stroke="black" d="M142.856,-145.811C177.202,-133.909 224.7,-117.449 258.664,-105.68"/>
</g>
<!-- clas2prop1 -->
<g id="node8" class="node"><title>clas2prop1</title>
<polygon fill="none" stroke="black" points="346.584,-36 255.466,-36 255.466,-0 346.584,-0 346.584,-36"/>
<text text-anchor="middle" x="301.025" y="-13.8" font-family="Times,serif" font-size="14.00">Style: flipped</text>
</g>
<!-- course2&#45;&#45;clas2prop1 -->
<g id="edge7" class="edge"><title>course2&#45;&#45;clas2prop1</title>
<path fill="none" stroke="black" stroke-dasharray="5,2" d="M301.025,-71.6966C301.025,-60.8463 301.025,-46.9167 301.025,-36.1043"/>
</g>
<!-- stud1prop1 -->
<g id="node5" class="node"><title>stud1prop1</title>
<polygon fill="none" stroke="black" points="308.719,-252 227.331,-252 227.331,-216 308.719,-216 308.719,-252"/>
<text text-anchor="middle" x="268.025" y="-229.8" font-family="Times,serif" font-size="14.00">Name: Jane</text>
</g>
<!-- stud1prop1&#45;&#45;student1 -->
<g id="edge1" class="edge"><title>stud1prop1&#45;&#45;student1</title>
<path fill="none" stroke="black" stroke-dasharray="5,2" d="M279.643,-215.697C286.928,-204.846 296.281,-190.917 303.541,-180.104"/>
</g>
<!-- stud2prop1 -->
<g id="node6" class="node"><title>stud2prop1</title>
<polygon fill="none" stroke="black" points="140.791,-252 57.2591,-252 57.2591,-216 140.791,-216 140.791,-252"/>
<text text-anchor="middle" x="99.0251" y="-229.8" font-family="Times,serif" font-size="14.00">Name: John</text>
</g>
<!-- stud2prop1&#45;&#45;student2 -->
<g id="edge3" class="edge"><title>stud2prop1&#45;&#45;student2</title>
<path fill="none" stroke="black" stroke-dasharray="5,2" d="M99.0251,-215.697C99.0251,-204.846 99.0251,-190.917 99.0251,-180.104"/>
</g>
<!-- stud1prop2 -->
<g id="node7" class="node"><title>stud1prop2</title>
<polygon fill="none" stroke="black" points="394.638,-252 327.413,-252 327.413,-216 394.638,-216 394.638,-252"/>
<text text-anchor="middle" x="361.025" y="-229.8" font-family="Times,serif" font-size="14.00">GPA: 3.5</text>
</g>
<!-- stud1prop2&#45;&#45;student1 -->
<g id="edge2" class="edge"><title>stud1prop2&#45;&#45;student1</title>
<path fill="none" stroke="black" stroke-dasharray="5,2" d="M349.654,-215.697C342.524,-204.846 333.37,-190.917 326.265,-180.104"/>
</g>
</g>
</svg>
